%FSLAX45Y45*%
G04 Gerber Fmt 4.5, Leading zero omitted, Abs format (unit mm)*
G04 Created by KiCad (PCBNEW 6.0.6) date 2022-07-10 21:04:09*
%MOMM*%
%LPD*%
G01*
G04 APERTURE LIST*
%TA.AperFunction,Profile*%
%ADD10C,0.100000*%
%TD*%
%ADD11C,0.200000*%
G04 APERTURE END LIST*
D10*
X15367000Y-8826500D02*
X17907000Y-8826500D01*
X17907000Y-8826500D02*
X17907000Y-11493500D01*
X17907000Y-11493500D02*
X15367000Y-11493500D01*
X15367000Y-11493500D02*
X15367000Y-8826500D01*
D11*
X15619619Y-11808976D02*
X15619619Y-11608976D01*
X15667238Y-11608976D01*
X15695809Y-11618500D01*
X15714857Y-11637548D01*
X15724381Y-11656595D01*
X15733905Y-11694690D01*
X15733905Y-11723262D01*
X15724381Y-11761357D01*
X15714857Y-11780405D01*
X15695809Y-11799452D01*
X15667238Y-11808976D01*
X15619619Y-11808976D01*
X15819619Y-11808976D02*
X15819619Y-11675643D01*
X15819619Y-11713738D02*
X15829143Y-11694690D01*
X15838667Y-11685167D01*
X15857714Y-11675643D01*
X15876762Y-11675643D01*
X15943428Y-11808976D02*
X15943428Y-11675643D01*
X15943428Y-11608976D02*
X15933905Y-11618500D01*
X15943428Y-11628024D01*
X15952952Y-11618500D01*
X15943428Y-11608976D01*
X15943428Y-11628024D01*
X16067238Y-11808976D02*
X16048190Y-11799452D01*
X16038667Y-11780405D01*
X16038667Y-11608976D01*
X16172000Y-11808976D02*
X16152952Y-11799452D01*
X16143428Y-11780405D01*
X16143428Y-11608976D01*
X16400571Y-11808976D02*
X16400571Y-11608976D01*
X16467238Y-11751833D01*
X16533905Y-11608976D01*
X16533905Y-11808976D01*
X16714857Y-11808976D02*
X16714857Y-11704214D01*
X16705333Y-11685167D01*
X16686286Y-11675643D01*
X16648190Y-11675643D01*
X16629143Y-11685167D01*
X16714857Y-11799452D02*
X16695809Y-11808976D01*
X16648190Y-11808976D01*
X16629143Y-11799452D01*
X16619619Y-11780405D01*
X16619619Y-11761357D01*
X16629143Y-11742309D01*
X16648190Y-11732786D01*
X16695809Y-11732786D01*
X16714857Y-11723262D01*
X16810095Y-11675643D02*
X16810095Y-11875643D01*
X16810095Y-11685167D02*
X16829143Y-11675643D01*
X16867238Y-11675643D01*
X16886286Y-11685167D01*
X16895810Y-11694690D01*
X16905333Y-11713738D01*
X16905333Y-11770881D01*
X16895810Y-11789928D01*
X16886286Y-11799452D01*
X16867238Y-11808976D01*
X16829143Y-11808976D01*
X16810095Y-11799452D01*
X16991048Y-11789928D02*
X17000571Y-11799452D01*
X16991048Y-11808976D01*
X16981524Y-11799452D01*
X16991048Y-11789928D01*
X16991048Y-11808976D01*
X16991048Y-11685167D02*
X17000571Y-11694690D01*
X16991048Y-11704214D01*
X16981524Y-11694690D01*
X16991048Y-11685167D01*
X16991048Y-11704214D01*
M02*
