G04 #@! TF.GenerationSoftware,KiCad,Pcbnew,6.0.6*
G04 #@! TF.CreationDate,2022-07-10T21:03:58+02:00*
G04 #@! TF.ProjectId,radio_board,72616469-6f5f-4626-9f61-72642e6b6963,rev?*
G04 #@! TF.SameCoordinates,Original*
G04 #@! TF.FileFunction,Copper,L1,Top*
G04 #@! TF.FilePolarity,Positive*
%FSLAX46Y46*%
G04 Gerber Fmt 4.6, Leading zero omitted, Abs format (unit mm)*
G04 Created by KiCad (PCBNEW 6.0.6) date 2022-07-10 21:03:58*
%MOMM*%
%LPD*%
G01*
G04 APERTURE LIST*
G04 #@! TA.AperFunction,ComponentPad*
%ADD10R,3.000000X3.000000*%
G04 #@! TD*
G04 #@! TA.AperFunction,ComponentPad*
%ADD11C,1.700000*%
G04 #@! TD*
G04 #@! TA.AperFunction,ComponentPad*
%ADD12O,1.700000X1.700000*%
G04 #@! TD*
G04 #@! TA.AperFunction,SMDPad,CuDef*
%ADD13R,1.000000X4.000000*%
G04 #@! TD*
G04 #@! TA.AperFunction,Conductor*
%ADD14C,1.000000*%
G04 #@! TD*
G04 #@! TA.AperFunction,Conductor*
%ADD15C,0.500000*%
G04 #@! TD*
G04 APERTURE END LIST*
D10*
X156114000Y-109022000D03*
D11*
X154940000Y-91440000D03*
D12*
X154940000Y-93980000D03*
X154940000Y-96520000D03*
X154940000Y-99060000D03*
X154940000Y-101600000D03*
X154940000Y-104140000D03*
D11*
X177800000Y-91440000D03*
D12*
X177800000Y-93980000D03*
X177800000Y-96520000D03*
X177800000Y-99060000D03*
X177800000Y-101600000D03*
X177800000Y-104140000D03*
X177800000Y-106680000D03*
D13*
X169370000Y-110180000D03*
X165370000Y-110180000D03*
X173370000Y-110180000D03*
X161370000Y-110180000D03*
X167370000Y-110180000D03*
X171370000Y-110180000D03*
X167370000Y-90480000D03*
X159370000Y-90480000D03*
X169370000Y-90480000D03*
X171370000Y-90480000D03*
X159370000Y-110180000D03*
X165370000Y-90480000D03*
X163370000Y-110180000D03*
X161370000Y-90480000D03*
X163370000Y-90480000D03*
X173370000Y-90480000D03*
D14*
X161370000Y-111330000D02*
X161370000Y-112510000D01*
X160215000Y-113665000D02*
X157455000Y-113665000D01*
X161370000Y-112510000D02*
X160215000Y-113665000D01*
X157455000Y-113665000D02*
X156114000Y-112324000D01*
X156114000Y-112324000D02*
X156114000Y-109022000D01*
D15*
X161925000Y-99060000D02*
X165370000Y-95615000D01*
D14*
X164165000Y-113665000D02*
X163370000Y-112870000D01*
X173370000Y-111330000D02*
X173370000Y-113015000D01*
D15*
X154940000Y-96520000D02*
X161290000Y-96520000D01*
X163370000Y-94440000D02*
X163370000Y-91230000D01*
X167370000Y-97425000D02*
X167370000Y-91230000D01*
X169370000Y-107330000D02*
X169370000Y-109430000D01*
X177800000Y-96520000D02*
X171450000Y-96520000D01*
X160655000Y-93980000D02*
X161370000Y-93265000D01*
X177800000Y-91440000D02*
X173580000Y-91440000D01*
D14*
X154940000Y-91440000D02*
X159160000Y-91440000D01*
D15*
X169370000Y-94440000D02*
X169370000Y-91230000D01*
X167370000Y-106330000D02*
X167370000Y-109430000D01*
X154940000Y-101600000D02*
X163195000Y-101600000D01*
X173020000Y-106680000D02*
X171370000Y-108330000D01*
D14*
X157480000Y-104140000D02*
X159370000Y-106030000D01*
D15*
X165370000Y-95615000D02*
X165370000Y-91230000D01*
D14*
X162164000Y-106030000D02*
X159370000Y-106030000D01*
X163370000Y-107236000D02*
X162164000Y-106030000D01*
D15*
X171370000Y-108330000D02*
X171370000Y-109430000D01*
X154940000Y-93980000D02*
X160655000Y-93980000D01*
X177800000Y-106680000D02*
X173020000Y-106680000D01*
D14*
X163370000Y-112870000D02*
X163370000Y-111330000D01*
D15*
X171450000Y-96520000D02*
X169370000Y-94440000D01*
D14*
X173370000Y-113015000D02*
X172720000Y-113665000D01*
X172720000Y-113665000D02*
X164165000Y-113665000D01*
X159160000Y-91440000D02*
X159370000Y-91230000D01*
D15*
X172560000Y-104140000D02*
X169370000Y-107330000D01*
X172100000Y-101600000D02*
X167370000Y-106330000D01*
D14*
X159370000Y-106030000D02*
X159370000Y-109430000D01*
D15*
X177800000Y-101600000D02*
X172100000Y-101600000D01*
X172085000Y-93980000D02*
X171370000Y-93265000D01*
X177800000Y-99060000D02*
X171640000Y-99060000D01*
X171370000Y-93265000D02*
X171370000Y-91230000D01*
X161290000Y-96520000D02*
X163370000Y-94440000D01*
X177800000Y-104140000D02*
X172560000Y-104140000D01*
D14*
X154940000Y-104140000D02*
X157480000Y-104140000D01*
D15*
X163195000Y-101600000D02*
X167370000Y-97425000D01*
X177800000Y-93980000D02*
X172085000Y-93980000D01*
D14*
X163370000Y-109430000D02*
X163370000Y-107236000D01*
D15*
X154940000Y-99060000D02*
X161925000Y-99060000D01*
X161370000Y-93265000D02*
X161370000Y-91230000D01*
X165370000Y-105330000D02*
X165370000Y-109430000D01*
X173580000Y-91440000D02*
X173370000Y-91230000D01*
X171640000Y-99060000D02*
X165370000Y-105330000D01*
M02*
