G04 #@! TF.GenerationSoftware,KiCad,Pcbnew,6.0.6*
G04 #@! TF.CreationDate,2022-07-10T21:03:59+02:00*
G04 #@! TF.ProjectId,radio_board,72616469-6f5f-4626-9f61-72642e6b6963,rev?*
G04 #@! TF.SameCoordinates,Original*
G04 #@! TF.FileFunction,Legend,Bot*
G04 #@! TF.FilePolarity,Positive*
%FSLAX46Y46*%
G04 Gerber Fmt 4.6, Leading zero omitted, Abs format (unit mm)*
G04 Created by KiCad (PCBNEW 6.0.6) date 2022-07-10 21:03:59*
%MOMM*%
%LPD*%
G01*
G04 APERTURE LIST*
%ADD10C,0.150000*%
%ADD11C,0.120000*%
%ADD12R,3.000000X3.000000*%
%ADD13C,1.700000*%
%ADD14O,1.700000X1.700000*%
G04 APERTURE END LIST*
D10*
X159988095Y-90892380D02*
X159369047Y-90892380D01*
X159702380Y-91273333D01*
X159559523Y-91273333D01*
X159464285Y-91320952D01*
X159416666Y-91368571D01*
X159369047Y-91463809D01*
X159369047Y-91701904D01*
X159416666Y-91797142D01*
X159464285Y-91844761D01*
X159559523Y-91892380D01*
X159845238Y-91892380D01*
X159940476Y-91844761D01*
X159988095Y-91797142D01*
X159083333Y-90892380D02*
X158750000Y-91892380D01*
X158416666Y-90892380D01*
X158178571Y-90892380D02*
X157559523Y-90892380D01*
X157892857Y-91273333D01*
X157750000Y-91273333D01*
X157654761Y-91320952D01*
X157607142Y-91368571D01*
X157559523Y-91463809D01*
X157559523Y-91701904D01*
X157607142Y-91797142D01*
X157654761Y-91844761D01*
X157750000Y-91892380D01*
X158035714Y-91892380D01*
X158130952Y-91844761D01*
X158178571Y-91797142D01*
X160250000Y-96972380D02*
X160250000Y-95972380D01*
X160011904Y-95972380D01*
X159869047Y-96020000D01*
X159773809Y-96115238D01*
X159726190Y-96210476D01*
X159678571Y-96400952D01*
X159678571Y-96543809D01*
X159726190Y-96734285D01*
X159773809Y-96829523D01*
X159869047Y-96924761D01*
X160011904Y-96972380D01*
X160250000Y-96972380D01*
X159250000Y-96972380D02*
X159250000Y-95972380D01*
X158583333Y-95972380D02*
X158392857Y-95972380D01*
X158297619Y-96020000D01*
X158202380Y-96115238D01*
X158154761Y-96305714D01*
X158154761Y-96639047D01*
X158202380Y-96829523D01*
X158297619Y-96924761D01*
X158392857Y-96972380D01*
X158583333Y-96972380D01*
X158678571Y-96924761D01*
X158773809Y-96829523D01*
X158821428Y-96639047D01*
X158821428Y-96305714D01*
X158773809Y-96115238D01*
X158678571Y-96020000D01*
X158583333Y-95972380D01*
X157297619Y-96305714D02*
X157297619Y-96972380D01*
X157535714Y-95924761D02*
X157773809Y-96639047D01*
X157154761Y-96639047D01*
X160250000Y-99512380D02*
X160250000Y-98512380D01*
X160011904Y-98512380D01*
X159869047Y-98560000D01*
X159773809Y-98655238D01*
X159726190Y-98750476D01*
X159678571Y-98940952D01*
X159678571Y-99083809D01*
X159726190Y-99274285D01*
X159773809Y-99369523D01*
X159869047Y-99464761D01*
X160011904Y-99512380D01*
X160250000Y-99512380D01*
X159250000Y-99512380D02*
X159250000Y-98512380D01*
X158583333Y-98512380D02*
X158392857Y-98512380D01*
X158297619Y-98560000D01*
X158202380Y-98655238D01*
X158154761Y-98845714D01*
X158154761Y-99179047D01*
X158202380Y-99369523D01*
X158297619Y-99464761D01*
X158392857Y-99512380D01*
X158583333Y-99512380D01*
X158678571Y-99464761D01*
X158773809Y-99369523D01*
X158821428Y-99179047D01*
X158821428Y-98845714D01*
X158773809Y-98655238D01*
X158678571Y-98560000D01*
X158583333Y-98512380D01*
X157821428Y-98512380D02*
X157202380Y-98512380D01*
X157535714Y-98893333D01*
X157392857Y-98893333D01*
X157297619Y-98940952D01*
X157250000Y-98988571D01*
X157202380Y-99083809D01*
X157202380Y-99321904D01*
X157250000Y-99417142D01*
X157297619Y-99464761D01*
X157392857Y-99512380D01*
X157678571Y-99512380D01*
X157773809Y-99464761D01*
X157821428Y-99417142D01*
X160250000Y-102052380D02*
X160250000Y-101052380D01*
X160011904Y-101052380D01*
X159869047Y-101100000D01*
X159773809Y-101195238D01*
X159726190Y-101290476D01*
X159678571Y-101480952D01*
X159678571Y-101623809D01*
X159726190Y-101814285D01*
X159773809Y-101909523D01*
X159869047Y-102004761D01*
X160011904Y-102052380D01*
X160250000Y-102052380D01*
X159250000Y-102052380D02*
X159250000Y-101052380D01*
X158583333Y-101052380D02*
X158392857Y-101052380D01*
X158297619Y-101100000D01*
X158202380Y-101195238D01*
X158154761Y-101385714D01*
X158154761Y-101719047D01*
X158202380Y-101909523D01*
X158297619Y-102004761D01*
X158392857Y-102052380D01*
X158583333Y-102052380D01*
X158678571Y-102004761D01*
X158773809Y-101909523D01*
X158821428Y-101719047D01*
X158821428Y-101385714D01*
X158773809Y-101195238D01*
X158678571Y-101100000D01*
X158583333Y-101052380D01*
X157773809Y-101147619D02*
X157726190Y-101100000D01*
X157630952Y-101052380D01*
X157392857Y-101052380D01*
X157297619Y-101100000D01*
X157250000Y-101147619D01*
X157202380Y-101242857D01*
X157202380Y-101338095D01*
X157250000Y-101480952D01*
X157821428Y-102052380D01*
X157202380Y-102052380D01*
X175490000Y-96972380D02*
X175490000Y-95972380D01*
X175251904Y-95972380D01*
X175109047Y-96020000D01*
X175013809Y-96115238D01*
X174966190Y-96210476D01*
X174918571Y-96400952D01*
X174918571Y-96543809D01*
X174966190Y-96734285D01*
X175013809Y-96829523D01*
X175109047Y-96924761D01*
X175251904Y-96972380D01*
X175490000Y-96972380D01*
X174490000Y-96972380D02*
X174490000Y-95972380D01*
X173823333Y-95972380D02*
X173632857Y-95972380D01*
X173537619Y-96020000D01*
X173442380Y-96115238D01*
X173394761Y-96305714D01*
X173394761Y-96639047D01*
X173442380Y-96829523D01*
X173537619Y-96924761D01*
X173632857Y-96972380D01*
X173823333Y-96972380D01*
X173918571Y-96924761D01*
X174013809Y-96829523D01*
X174061428Y-96639047D01*
X174061428Y-96305714D01*
X174013809Y-96115238D01*
X173918571Y-96020000D01*
X173823333Y-95972380D01*
X172442380Y-96972380D02*
X173013809Y-96972380D01*
X172728095Y-96972380D02*
X172728095Y-95972380D01*
X172823333Y-96115238D01*
X172918571Y-96210476D01*
X173013809Y-96258095D01*
X159511904Y-103640000D02*
X159607142Y-103592380D01*
X159750000Y-103592380D01*
X159892857Y-103640000D01*
X159988095Y-103735238D01*
X160035714Y-103830476D01*
X160083333Y-104020952D01*
X160083333Y-104163809D01*
X160035714Y-104354285D01*
X159988095Y-104449523D01*
X159892857Y-104544761D01*
X159750000Y-104592380D01*
X159654761Y-104592380D01*
X159511904Y-104544761D01*
X159464285Y-104497142D01*
X159464285Y-104163809D01*
X159654761Y-104163809D01*
X159035714Y-104592380D02*
X159035714Y-103592380D01*
X158464285Y-104592380D01*
X158464285Y-103592380D01*
X157988095Y-104592380D02*
X157988095Y-103592380D01*
X157750000Y-103592380D01*
X157607142Y-103640000D01*
X157511904Y-103735238D01*
X157464285Y-103830476D01*
X157416666Y-104020952D01*
X157416666Y-104163809D01*
X157464285Y-104354285D01*
X157511904Y-104449523D01*
X157607142Y-104544761D01*
X157750000Y-104592380D01*
X157988095Y-104592380D01*
X175275714Y-99464761D02*
X175132857Y-99512380D01*
X174894761Y-99512380D01*
X174799523Y-99464761D01*
X174751904Y-99417142D01*
X174704285Y-99321904D01*
X174704285Y-99226666D01*
X174751904Y-99131428D01*
X174799523Y-99083809D01*
X174894761Y-99036190D01*
X175085238Y-98988571D01*
X175180476Y-98940952D01*
X175228095Y-98893333D01*
X175275714Y-98798095D01*
X175275714Y-98702857D01*
X175228095Y-98607619D01*
X175180476Y-98560000D01*
X175085238Y-98512380D01*
X174847142Y-98512380D01*
X174704285Y-98560000D01*
X173704285Y-99417142D02*
X173751904Y-99464761D01*
X173894761Y-99512380D01*
X173990000Y-99512380D01*
X174132857Y-99464761D01*
X174228095Y-99369523D01*
X174275714Y-99274285D01*
X174323333Y-99083809D01*
X174323333Y-98940952D01*
X174275714Y-98750476D01*
X174228095Y-98655238D01*
X174132857Y-98560000D01*
X173990000Y-98512380D01*
X173894761Y-98512380D01*
X173751904Y-98560000D01*
X173704285Y-98607619D01*
X173275714Y-99512380D02*
X173275714Y-98512380D01*
X172704285Y-99512380D02*
X173132857Y-98940952D01*
X172704285Y-98512380D02*
X173275714Y-99083809D01*
X177388095Y-113682380D02*
X177721428Y-113206190D01*
X177959523Y-113682380D02*
X177959523Y-112682380D01*
X177578571Y-112682380D01*
X177483333Y-112730000D01*
X177435714Y-112777619D01*
X177388095Y-112872857D01*
X177388095Y-113015714D01*
X177435714Y-113110952D01*
X177483333Y-113158571D01*
X177578571Y-113206190D01*
X177959523Y-113206190D01*
X176626190Y-113158571D02*
X176959523Y-113158571D01*
X176959523Y-113682380D02*
X176959523Y-112682380D01*
X176483333Y-112682380D01*
X176102380Y-113682380D02*
X176102380Y-112682380D01*
X175769047Y-113396666D01*
X175435714Y-112682380D01*
X175435714Y-113682380D01*
X174530952Y-112682380D02*
X174721428Y-112682380D01*
X174816666Y-112730000D01*
X174864285Y-112777619D01*
X174959523Y-112920476D01*
X175007142Y-113110952D01*
X175007142Y-113491904D01*
X174959523Y-113587142D01*
X174911904Y-113634761D01*
X174816666Y-113682380D01*
X174626190Y-113682380D01*
X174530952Y-113634761D01*
X174483333Y-113587142D01*
X174435714Y-113491904D01*
X174435714Y-113253809D01*
X174483333Y-113158571D01*
X174530952Y-113110952D01*
X174626190Y-113063333D01*
X174816666Y-113063333D01*
X174911904Y-113110952D01*
X174959523Y-113158571D01*
X175007142Y-113253809D01*
X173959523Y-113682380D02*
X173769047Y-113682380D01*
X173673809Y-113634761D01*
X173626190Y-113587142D01*
X173530952Y-113444285D01*
X173483333Y-113253809D01*
X173483333Y-112872857D01*
X173530952Y-112777619D01*
X173578571Y-112730000D01*
X173673809Y-112682380D01*
X173864285Y-112682380D01*
X173959523Y-112730000D01*
X174007142Y-112777619D01*
X174054761Y-112872857D01*
X174054761Y-113110952D01*
X174007142Y-113206190D01*
X173959523Y-113253809D01*
X173864285Y-113301428D01*
X173673809Y-113301428D01*
X173578571Y-113253809D01*
X173530952Y-113206190D01*
X173483333Y-113110952D01*
X173150000Y-112682380D02*
X172911904Y-113682380D01*
X172721428Y-112968095D01*
X172530952Y-113682380D01*
X172292857Y-112682380D01*
X171197619Y-113396666D02*
X170721428Y-113396666D01*
X171292857Y-113682380D02*
X170959523Y-112682380D01*
X170626190Y-113682380D01*
X169864285Y-113682380D02*
X169864285Y-112682380D01*
X169864285Y-113634761D02*
X169959523Y-113682380D01*
X170150000Y-113682380D01*
X170245238Y-113634761D01*
X170292857Y-113587142D01*
X170340476Y-113491904D01*
X170340476Y-113206190D01*
X170292857Y-113110952D01*
X170245238Y-113063333D01*
X170150000Y-113015714D01*
X169959523Y-113015714D01*
X169864285Y-113063333D01*
X168959523Y-113682380D02*
X168959523Y-113158571D01*
X169007142Y-113063333D01*
X169102380Y-113015714D01*
X169292857Y-113015714D01*
X169388095Y-113063333D01*
X168959523Y-113634761D02*
X169054761Y-113682380D01*
X169292857Y-113682380D01*
X169388095Y-113634761D01*
X169435714Y-113539523D01*
X169435714Y-113444285D01*
X169388095Y-113349047D01*
X169292857Y-113301428D01*
X169054761Y-113301428D01*
X168959523Y-113253809D01*
X168483333Y-113015714D02*
X168483333Y-114015714D01*
X168483333Y-113063333D02*
X168388095Y-113015714D01*
X168197619Y-113015714D01*
X168102380Y-113063333D01*
X168054761Y-113110952D01*
X168007142Y-113206190D01*
X168007142Y-113491904D01*
X168054761Y-113587142D01*
X168102380Y-113634761D01*
X168197619Y-113682380D01*
X168388095Y-113682380D01*
X168483333Y-113634761D01*
X167721428Y-113015714D02*
X167340476Y-113015714D01*
X167578571Y-112682380D02*
X167578571Y-113539523D01*
X167530952Y-113634761D01*
X167435714Y-113682380D01*
X167340476Y-113682380D01*
X166626190Y-113634761D02*
X166721428Y-113682380D01*
X166911904Y-113682380D01*
X167007142Y-113634761D01*
X167054761Y-113539523D01*
X167054761Y-113158571D01*
X167007142Y-113063333D01*
X166911904Y-113015714D01*
X166721428Y-113015714D01*
X166626190Y-113063333D01*
X166578571Y-113158571D01*
X166578571Y-113253809D01*
X167054761Y-113349047D01*
X166150000Y-113682380D02*
X166150000Y-113015714D01*
X166150000Y-113206190D02*
X166102380Y-113110952D01*
X166054761Y-113063333D01*
X165959523Y-113015714D01*
X165864285Y-113015714D01*
X164435714Y-113158571D02*
X164292857Y-113206190D01*
X164245238Y-113253809D01*
X164197619Y-113349047D01*
X164197619Y-113491904D01*
X164245238Y-113587142D01*
X164292857Y-113634761D01*
X164388095Y-113682380D01*
X164769047Y-113682380D01*
X164769047Y-112682380D01*
X164435714Y-112682380D01*
X164340476Y-112730000D01*
X164292857Y-112777619D01*
X164245238Y-112872857D01*
X164245238Y-112968095D01*
X164292857Y-113063333D01*
X164340476Y-113110952D01*
X164435714Y-113158571D01*
X164769047Y-113158571D01*
X163626190Y-113682380D02*
X163721428Y-113634761D01*
X163769047Y-113587142D01*
X163816666Y-113491904D01*
X163816666Y-113206190D01*
X163769047Y-113110952D01*
X163721428Y-113063333D01*
X163626190Y-113015714D01*
X163483333Y-113015714D01*
X163388095Y-113063333D01*
X163340476Y-113110952D01*
X163292857Y-113206190D01*
X163292857Y-113491904D01*
X163340476Y-113587142D01*
X163388095Y-113634761D01*
X163483333Y-113682380D01*
X163626190Y-113682380D01*
X162435714Y-113682380D02*
X162435714Y-113158571D01*
X162483333Y-113063333D01*
X162578571Y-113015714D01*
X162769047Y-113015714D01*
X162864285Y-113063333D01*
X162435714Y-113634761D02*
X162530952Y-113682380D01*
X162769047Y-113682380D01*
X162864285Y-113634761D01*
X162911904Y-113539523D01*
X162911904Y-113444285D01*
X162864285Y-113349047D01*
X162769047Y-113301428D01*
X162530952Y-113301428D01*
X162435714Y-113253809D01*
X161959523Y-113682380D02*
X161959523Y-113015714D01*
X161959523Y-113206190D02*
X161911904Y-113110952D01*
X161864285Y-113063333D01*
X161769047Y-113015714D01*
X161673809Y-113015714D01*
X160911904Y-113682380D02*
X160911904Y-112682380D01*
X160911904Y-113634761D02*
X161007142Y-113682380D01*
X161197619Y-113682380D01*
X161292857Y-113634761D01*
X161340476Y-113587142D01*
X161388095Y-113491904D01*
X161388095Y-113206190D01*
X161340476Y-113110952D01*
X161292857Y-113063333D01*
X161197619Y-113015714D01*
X161007142Y-113015714D01*
X160911904Y-113063333D01*
X159816666Y-112682380D02*
X159483333Y-113682380D01*
X159150000Y-112682380D01*
X158292857Y-113682380D02*
X158864285Y-113682380D01*
X158578571Y-113682380D02*
X158578571Y-112682380D01*
X158673809Y-112825238D01*
X158769047Y-112920476D01*
X158864285Y-112968095D01*
X160250000Y-94432380D02*
X160250000Y-93432380D01*
X160011904Y-93432380D01*
X159869047Y-93480000D01*
X159773809Y-93575238D01*
X159726190Y-93670476D01*
X159678571Y-93860952D01*
X159678571Y-94003809D01*
X159726190Y-94194285D01*
X159773809Y-94289523D01*
X159869047Y-94384761D01*
X160011904Y-94432380D01*
X160250000Y-94432380D01*
X159250000Y-94432380D02*
X159250000Y-93432380D01*
X158583333Y-93432380D02*
X158392857Y-93432380D01*
X158297619Y-93480000D01*
X158202380Y-93575238D01*
X158154761Y-93765714D01*
X158154761Y-94099047D01*
X158202380Y-94289523D01*
X158297619Y-94384761D01*
X158392857Y-94432380D01*
X158583333Y-94432380D01*
X158678571Y-94384761D01*
X158773809Y-94289523D01*
X158821428Y-94099047D01*
X158821428Y-93765714D01*
X158773809Y-93575238D01*
X158678571Y-93480000D01*
X158583333Y-93432380D01*
X157250000Y-93432380D02*
X157726190Y-93432380D01*
X157773809Y-93908571D01*
X157726190Y-93860952D01*
X157630952Y-93813333D01*
X157392857Y-93813333D01*
X157297619Y-93860952D01*
X157250000Y-93908571D01*
X157202380Y-94003809D01*
X157202380Y-94241904D01*
X157250000Y-94337142D01*
X157297619Y-94384761D01*
X157392857Y-94432380D01*
X157630952Y-94432380D01*
X157726190Y-94384761D01*
X157773809Y-94337142D01*
X174537619Y-91892380D02*
X174870952Y-91416190D01*
X175109047Y-91892380D02*
X175109047Y-90892380D01*
X174728095Y-90892380D01*
X174632857Y-90940000D01*
X174585238Y-90987619D01*
X174537619Y-91082857D01*
X174537619Y-91225714D01*
X174585238Y-91320952D01*
X174632857Y-91368571D01*
X174728095Y-91416190D01*
X175109047Y-91416190D01*
X174156666Y-91844761D02*
X174013809Y-91892380D01*
X173775714Y-91892380D01*
X173680476Y-91844761D01*
X173632857Y-91797142D01*
X173585238Y-91701904D01*
X173585238Y-91606666D01*
X173632857Y-91511428D01*
X173680476Y-91463809D01*
X173775714Y-91416190D01*
X173966190Y-91368571D01*
X174061428Y-91320952D01*
X174109047Y-91273333D01*
X174156666Y-91178095D01*
X174156666Y-91082857D01*
X174109047Y-90987619D01*
X174061428Y-90940000D01*
X173966190Y-90892380D01*
X173728095Y-90892380D01*
X173585238Y-90940000D01*
X173299523Y-90892380D02*
X172728095Y-90892380D01*
X173013809Y-91892380D02*
X173013809Y-90892380D01*
X175561428Y-104592380D02*
X175561428Y-103592380D01*
X175228095Y-104306666D01*
X174894761Y-103592380D01*
X174894761Y-104592380D01*
X174228095Y-103592380D02*
X174037619Y-103592380D01*
X173942380Y-103640000D01*
X173847142Y-103735238D01*
X173799523Y-103925714D01*
X173799523Y-104259047D01*
X173847142Y-104449523D01*
X173942380Y-104544761D01*
X174037619Y-104592380D01*
X174228095Y-104592380D01*
X174323333Y-104544761D01*
X174418571Y-104449523D01*
X174466190Y-104259047D01*
X174466190Y-103925714D01*
X174418571Y-103735238D01*
X174323333Y-103640000D01*
X174228095Y-103592380D01*
X173418571Y-104544761D02*
X173275714Y-104592380D01*
X173037619Y-104592380D01*
X172942380Y-104544761D01*
X172894761Y-104497142D01*
X172847142Y-104401904D01*
X172847142Y-104306666D01*
X172894761Y-104211428D01*
X172942380Y-104163809D01*
X173037619Y-104116190D01*
X173228095Y-104068571D01*
X173323333Y-104020952D01*
X173370952Y-103973333D01*
X173418571Y-103878095D01*
X173418571Y-103782857D01*
X173370952Y-103687619D01*
X173323333Y-103640000D01*
X173228095Y-103592380D01*
X172990000Y-103592380D01*
X172847142Y-103640000D01*
X172418571Y-104592380D02*
X172418571Y-103592380D01*
X175561428Y-102052380D02*
X175561428Y-101052380D01*
X175228095Y-101766666D01*
X174894761Y-101052380D01*
X174894761Y-102052380D01*
X174418571Y-102052380D02*
X174418571Y-101052380D01*
X173990000Y-102004761D02*
X173847142Y-102052380D01*
X173609047Y-102052380D01*
X173513809Y-102004761D01*
X173466190Y-101957142D01*
X173418571Y-101861904D01*
X173418571Y-101766666D01*
X173466190Y-101671428D01*
X173513809Y-101623809D01*
X173609047Y-101576190D01*
X173799523Y-101528571D01*
X173894761Y-101480952D01*
X173942380Y-101433333D01*
X173990000Y-101338095D01*
X173990000Y-101242857D01*
X173942380Y-101147619D01*
X173894761Y-101100000D01*
X173799523Y-101052380D01*
X173561428Y-101052380D01*
X173418571Y-101100000D01*
X172799523Y-101052380D02*
X172609047Y-101052380D01*
X172513809Y-101100000D01*
X172418571Y-101195238D01*
X172370952Y-101385714D01*
X172370952Y-101719047D01*
X172418571Y-101909523D01*
X172513809Y-102004761D01*
X172609047Y-102052380D01*
X172799523Y-102052380D01*
X172894761Y-102004761D01*
X172990000Y-101909523D01*
X173037619Y-101719047D01*
X173037619Y-101385714D01*
X172990000Y-101195238D01*
X172894761Y-101100000D01*
X172799523Y-101052380D01*
X175490000Y-94432380D02*
X175490000Y-93432380D01*
X175251904Y-93432380D01*
X175109047Y-93480000D01*
X175013809Y-93575238D01*
X174966190Y-93670476D01*
X174918571Y-93860952D01*
X174918571Y-94003809D01*
X174966190Y-94194285D01*
X175013809Y-94289523D01*
X175109047Y-94384761D01*
X175251904Y-94432380D01*
X175490000Y-94432380D01*
X174490000Y-94432380D02*
X174490000Y-93432380D01*
X173823333Y-93432380D02*
X173632857Y-93432380D01*
X173537619Y-93480000D01*
X173442380Y-93575238D01*
X173394761Y-93765714D01*
X173394761Y-94099047D01*
X173442380Y-94289523D01*
X173537619Y-94384761D01*
X173632857Y-94432380D01*
X173823333Y-94432380D01*
X173918571Y-94384761D01*
X174013809Y-94289523D01*
X174061428Y-94099047D01*
X174061428Y-93765714D01*
X174013809Y-93575238D01*
X173918571Y-93480000D01*
X173823333Y-93432380D01*
X172775714Y-93432380D02*
X172680476Y-93432380D01*
X172585238Y-93480000D01*
X172537619Y-93527619D01*
X172490000Y-93622857D01*
X172442380Y-93813333D01*
X172442380Y-94051428D01*
X172490000Y-94241904D01*
X172537619Y-94337142D01*
X172585238Y-94384761D01*
X172680476Y-94432380D01*
X172775714Y-94432380D01*
X172870952Y-94384761D01*
X172918571Y-94337142D01*
X172966190Y-94241904D01*
X173013809Y-94051428D01*
X173013809Y-93813333D01*
X172966190Y-93622857D01*
X172918571Y-93527619D01*
X172870952Y-93480000D01*
X172775714Y-93432380D01*
X175228095Y-107132380D02*
X175228095Y-106132380D01*
X174656666Y-107132380D01*
X174656666Y-106132380D01*
X174228095Y-107084761D02*
X174085238Y-107132380D01*
X173847142Y-107132380D01*
X173751904Y-107084761D01*
X173704285Y-107037142D01*
X173656666Y-106941904D01*
X173656666Y-106846666D01*
X173704285Y-106751428D01*
X173751904Y-106703809D01*
X173847142Y-106656190D01*
X174037619Y-106608571D01*
X174132857Y-106560952D01*
X174180476Y-106513333D01*
X174228095Y-106418095D01*
X174228095Y-106322857D01*
X174180476Y-106227619D01*
X174132857Y-106180000D01*
X174037619Y-106132380D01*
X173799523Y-106132380D01*
X173656666Y-106180000D01*
X173275714Y-107084761D02*
X173132857Y-107132380D01*
X172894761Y-107132380D01*
X172799523Y-107084761D01*
X172751904Y-107037142D01*
X172704285Y-106941904D01*
X172704285Y-106846666D01*
X172751904Y-106751428D01*
X172799523Y-106703809D01*
X172894761Y-106656190D01*
X173085238Y-106608571D01*
X173180476Y-106560952D01*
X173228095Y-106513333D01*
X173275714Y-106418095D01*
X173275714Y-106322857D01*
X173228095Y-106227619D01*
X173180476Y-106180000D01*
X173085238Y-106132380D01*
X172847142Y-106132380D01*
X172704285Y-106180000D01*
D11*
X156210000Y-105410000D02*
X153822400Y-105410000D01*
X156210000Y-90170000D02*
X156210000Y-105410000D01*
X153797000Y-90170000D02*
X156210000Y-90170000D01*
X178866800Y-107950000D02*
X176530000Y-107950000D01*
X176530000Y-107950000D02*
X176530000Y-90170000D01*
X176530000Y-90170000D02*
X178892200Y-90170000D01*
X176530000Y-97790000D02*
X178866800Y-97790000D01*
%LPC*%
D12*
X156114000Y-109022000D03*
D13*
X154940000Y-91440000D03*
D14*
X154940000Y-93980000D03*
X154940000Y-96520000D03*
X154940000Y-99060000D03*
X154940000Y-101600000D03*
X154940000Y-104140000D03*
D13*
X177800000Y-91440000D03*
D14*
X177800000Y-93980000D03*
X177800000Y-96520000D03*
X177800000Y-99060000D03*
X177800000Y-101600000D03*
X177800000Y-104140000D03*
X177800000Y-106680000D03*
M02*
